<mxfile host="app.diagrams.net" agent="Mozilla/5.0 (Windows NT 10.0; Win64; x64; rv:144.0) Gecko/20100101 Firefox/144.0" version="28.2.7">
  <diagram name="Page-1" id="NPzHDlhp0iShbn37WLAq">
    <mxGraphModel dx="983" dy="547" grid="1" gridSize="10" guides="1" tooltips="1" connect="1" arrows="1" fold="1" page="1" pageScale="1" pageWidth="850" pageHeight="1100" math="0" shadow="0">
      <root>
        <mxCell id="0" />
        <mxCell id="1" parent="0" />
        <mxCell id="qIuf_jITLnmIXhc9A3KR-22" value="" style="swimlane;startSize=0;align=center;strokeWidth=2;" vertex="1" parent="1">
          <mxGeometry x="220" y="250" width="300" height="140" as="geometry" />
        </mxCell>
        <mxCell id="qIuf_jITLnmIXhc9A3KR-26" value="Factory" style="swimlane;fontStyle=0;childLayout=stackLayout;horizontal=1;startSize=40;horizontalStack=0;resizeParent=1;resizeParentMax=0;resizeLast=0;collapsible=1;marginBottom=0;whiteSpace=wrap;html=1;" vertex="1" parent="qIuf_jITLnmIXhc9A3KR-22">
          <mxGeometry x="40" y="30" width="190" height="70" as="geometry" />
        </mxCell>
        <mxCell id="qIuf_jITLnmIXhc9A3KR-27" value="&lt;u&gt;+ getInstancia(String) : Object&lt;/u&gt;" style="text;strokeColor=none;fillColor=none;align=left;verticalAlign=middle;spacingLeft=4;spacingRight=4;overflow=hidden;points=[[0,0.5],[1,0.5]];portConstraint=eastwest;rotatable=0;whiteSpace=wrap;html=1;" vertex="1" parent="qIuf_jITLnmIXhc9A3KR-26">
          <mxGeometry y="40" width="190" height="30" as="geometry" />
        </mxCell>
        <mxCell id="qIuf_jITLnmIXhc9A3KR-41" value="" style="swimlane;startSize=0;strokeWidth=2;" vertex="1" parent="1">
          <mxGeometry x="220" y="220" width="150" height="30" as="geometry" />
        </mxCell>
        <mxCell id="qIuf_jITLnmIXhc9A3KR-42" value="Conexion" style="text;html=1;align=center;verticalAlign=middle;resizable=0;points=[];autosize=1;strokeColor=none;fillColor=none;fontSize=16;" vertex="1" parent="qIuf_jITLnmIXhc9A3KR-41">
          <mxGeometry x="10" width="90" height="30" as="geometry" />
        </mxCell>
      </root>
    </mxGraphModel>
  </diagram>
</mxfile>
